<?xml version="1.0" standalone="no"?>
<!DOCTYPE svg PUBLIC "-//W3C//DTD SVG 1.1//EN" "http://www.w3.org/Graphics/SVG/1.1/DTD/svg11.dtd" >
<svg xmlns="http://www.w3.org/2000/svg">
<metadata></metadata>
<defs>
<font id="limerick-xlightregular" horiz-adv-x="1183" >
<font-face units-per-em="2048" ascent="1638" descent="-410" />
<missing-glyph horiz-adv-x="593" />
<glyph horiz-adv-x="0" />
<glyph horiz-adv-x="682" />
<glyph unicode=" "  horiz-adv-x="593" />
<glyph unicode="&#x09;" horiz-adv-x="593" />
<glyph unicode="&#xa0;" horiz-adv-x="593" />
<glyph unicode="!" horiz-adv-x="319" d="M98 59q0 33 21.5 54.5t52.5 21.5q33 0 54.5 -21.5t21.5 -54.5t-21.5 -54t-54.5 -21q-29 0 -51.5 22.5t-22.5 52.5zM131 326v1149h84v-1149h-84z" />
<glyph unicode="&#x22;" horiz-adv-x="530" d="M-16 1006l147 471h121l-209 -471h-59zM209 1006l145 471h121l-209 -471h-57z" />
<glyph unicode="#" horiz-adv-x="1292" d="M113 481l16 80h236l75 352h-237l18 80h236l92 441h80l-92 -441h231l92 441h80l-92 -441h235l-16 -80h-238l-73 -352h235l-16 -80h-236l-92 -440h-80l92 440h-231l-92 -440h-80l92 440h-235zM444 561h232l76 352h-232z" />
<glyph unicode="$" horiz-adv-x="1001" d="M35 229l67 62q18 -37 33 -59.5t54.5 -67.5t111.5 -77t154 -42v709q-63 29 -111.5 55.5t-138.5 93t-90 244.5q0 147 97 250.5t243 103.5v107h49v-105h26q184 0 320 -174l-59 -63q-43 57 -80 84q-51 45 -92 59t-109 14l-6 -594l57 -18q51 -23 78 -35t160 -82.5t133 -300.5 q0 -180 -89 -269t-146.5 -113.5t-96.5 -33t-96 -8.5v-123h-49v117q-53 0 -81 6t-73 27q-109 41 -188 123q-25 29 -41.5 49t-36.5 61zM211 1143q0 -133 98 -211q33 -23 78 -49.5t68 -36.5l4 567q-109 -10 -178.5 -86t-69.5 -184zM504 53q51 0 73.5 4t72.5 24.5t94 71t69 112 t25 122.5q0 236 -334 344v-678z" />
<glyph unicode="%" horiz-adv-x="1595" d="M80 1137q0 160 108.5 268t266.5 108t265 -109.5t107 -266.5q0 -160 -106.5 -268.5t-265.5 -108.5q-158 0 -266.5 108.5t-108.5 268.5zM160 1137q0 -127 85 -216.5t210 -89.5q123 0 209 88.5t86 217.5q0 127 -85 216t-210 89q-123 0 -209 -88t-86 -217zM266 0l1012 1518 l59 -41l-1009 -1512zM768 340q0 158 109.5 267.5t265.5 109.5q154 0 262 -108.5t108 -264.5t-108.5 -266.5t-261.5 -110.5q-156 0 -265.5 109.5t-109.5 263.5zM848 344q0 -129 85 -218t210 -89q123 0 208 89t85 218q0 127 -84 215t-209 88q-123 0 -209 -88t-86 -215z" />
<glyph unicode="&#x26;" horiz-adv-x="1284" d="M78 352q0 133 55 211t108.5 126t116.5 91l88 60l-59 67q-31 37 -40 48.5t-21 31.5q-68 90 -68 207q0 131 87 218t218 87q129 0 216 -81t87 -199q0 -59 -26.5 -123t-68.5 -108t-87 -81t-117 -84l389 -446l211 227l54 -57l-217 -230l274 -317h-102l-230 268l-131 -123 q-43 -39 -61.5 -54t-90 -66.5t-208.5 -51.5q-160 0 -268.5 108.5t-108.5 270.5zM164 356q0 -129 84 -217t207 -88q152 0 317 160l121 113l-395 456l-95 -65q-117 -80 -178 -164t-61 -195zM344 1196q0 -76 37 -143.5t137 -173.5q150 104 208 176.5t58 156.5q0 90 -63.5 149.5 t-157.5 59.5q-98 0 -158.5 -62.5t-60.5 -162.5z" />
<glyph unicode="'" horiz-adv-x="307" d="M-16 1006l147 471h121l-209 -471h-59z" />
<glyph unicode="(" horiz-adv-x="458" d="M92 731q0 238 52.5 431.5t91 288.5t129.5 263l73 -16q-29 -55 -66.5 -135t-108 -251t-70.5 -575q0 -256 45 -440t76.5 -265t119.5 -255l-74 -17l-118 236q-72 168 -111 357.5t-39 377.5z" />
<glyph unicode=")" horiz-adv-x="454" d="M20 -221q72 139 111 229q133 330 133 731q0 252 -43 435.5t-75.5 268.5t-118.5 257l67 16q41 -70 72 -131t74 -164.5t81.5 -299t38.5 -386.5q0 -121 -16 -247t-48 -249.5t-71 -214t-135 -260.5z" />
<glyph unicode="*" horiz-adv-x="763" d="M55 1018l285 141l-285 154l33 55l270 -170l-4 324h58l-4 -322l268 168l33 -57l-291 -148l287 -153l-33 -56l-266 168l4 -311h-54v317l-270 -165z" />
<glyph unicode="+" d="M139 705v67h414v418h76v-418h413v-67h-413v-416h-76v416h-414z" />
<glyph unicode="," horiz-adv-x="307" d="M-16 -256l147 469h121l-209 -469h-59z" />
<glyph unicode="-" horiz-adv-x="514" d="M55 426v72h406v-72h-406z" />
<glyph unicode="." horiz-adv-x="258" d="M55 59q0 33 21.5 54.5t52.5 21.5t52.5 -21.5t21.5 -54.5q0 -31 -20.5 -53t-53.5 -22q-29 0 -51.5 22.5t-22.5 52.5z" />
<glyph unicode="/" horiz-adv-x="989" d="M55 -33l803 1532h76l-801 -1532h-78z" />
<glyph unicode="0" d="M74 735q0 344 121 545q61 104 166.5 163.5t230.5 59.5q121 0 228.5 -59.5t198.5 -212t91 -496.5q0 -342 -91 -494.5t-199.5 -214t-227.5 -61.5q-121 0 -228.5 59.5t-198.5 212t-91 498.5zM164 733q0 -332 110.5 -510t317.5 -178q205 0 315.5 178t110.5 512 q0 311 -73 444.5t-164 188.5t-189 55q-100 0 -189.5 -53t-164 -187.5t-74.5 -449.5z" />
<glyph unicode="1" d="M354 1405v72h297v-1477h-88v1405h-209z" />
<glyph unicode="2" d="M102 1073q0 199 131 319.5t338 120.5t345.5 -134t138.5 -335q0 -209 -191 -399l-583 -573h790v-72h-960l671 682q98 102 138.5 183t40.5 179q0 170 -111 283t-281 113q-164 0 -271.5 -101.5t-107.5 -267.5z" />
<glyph unicode="3" d="M104 352h95q18 -145 121.5 -230t263.5 -85q170 0 278.5 102.5t108.5 263.5q0 166 -108.5 258.5t-305.5 92.5v69h8h15q162 0 252 80t90 225q0 139 -92.5 225.5t-245.5 86.5q-150 0 -235 -74t-101 -215h-90q49 358 426 358q190 0 308 -103t118 -271q0 -129 -68 -219.5 t-188 -122.5q141 -33 225 -137.5t84 -254.5q0 -195 -133 -315.5t-348 -120.5q-201 0 -327 101.5t-151 285.5z" />
<glyph unicode="4" d="M20 322l891 1210v-1141h224l2 -72h-228v-319h-84v322h-805zM152 377q53 12 88 12h585v846v32.5t11 65.5l-45 -84l-576 -809z" />
<glyph unicode="5" d="M82 266l51 70q68 -139 184.5 -219t255.5 -80q182 0 305 118.5t123 299.5q0 180 -119.5 297.5t-303.5 117.5q-166 0 -328 -114l207 721h579l-2 -74h-510l-159 -526q57 35 112 49t123 14q213 0 352.5 -135t139.5 -348t-145.5 -354.5t-368.5 -141.5q-328 0 -496 305z" />
<glyph unicode="6" d="M88 459q0 133 70 266l61 102l402 648h100l-406 -637q25 23 38.5 30t23.5 13q109 63 244 63q199 0 337 -140t138 -341q0 -209 -145.5 -352.5t-358.5 -143.5t-358.5 141.5t-145.5 350.5zM180 453q0 -172 119 -291t293 -119q176 0 296 118t120 298q0 176 -119 297t-291 121 q-174 0 -296 -116t-122 -290v-18z" />
<glyph unicode="7" d="M119 1401v76h973l-867 -1477h-98l795 1346q12 23 20 34t29 29q-49 -8 -82 -8h-770z" />
<glyph unicode="8" d="M141 397q0 147 82 252t232 150q-117 39 -184.5 128t-67.5 208q0 158 112.5 266t276.5 108q162 0 274.5 -108.5t112.5 -261.5q0 -123 -65.5 -212t-184.5 -128q147 -45 229 -150.5t82 -251.5q0 -184 -130 -310t-318 -126t-319.5 127t-131.5 309zM236 391q0 -150 104 -252 t252 -102q147 0 251.5 106.5t104.5 259.5q0 147 -104.5 252t-251.5 105t-251.5 -104.5t-104.5 -252.5v-12zM291 1137q0 -127 87 -216.5t214 -89.5q125 0 212 89.5t87 216.5q0 125 -86 213t-213 88q-129 0 -215 -86t-86 -215z" />
<glyph unicode="9" d="M90 1012q0 209 145.5 352t356.5 143t356.5 -143t145.5 -356q0 -119 -46.5 -213.5t-80.5 -145.5l-406 -649h-102l407 633q-20 -16 -55 -39q-109 -68 -244 -68q-199 0 -338 141.5t-139 344.5zM176 985q0 -162 124 -275.5t290 -113.5q172 0 293 123t121 295q0 174 -120 296 t-292 122q-178 0 -297 -121t-119 -301v-25z" />
<glyph unicode=":" horiz-adv-x="301" d="M94 59q0 31 22.5 53.5t53.5 22.5q33 0 54.5 -21.5t21.5 -54.5t-21.5 -54t-54.5 -21q-31 0 -53.5 22.5t-22.5 52.5zM94 659q0 31 22.5 53.5t53.5 22.5q33 0 54.5 -21.5t21.5 -54.5t-21.5 -54t-54.5 -21q-31 0 -53.5 22.5t-22.5 52.5z" />
<glyph unicode=";" horiz-adv-x="346" d="M25 -256l145 469h123l-211 -469h-57zM137 659q0 33 21.5 54.5t54.5 21.5t54.5 -21.5t21.5 -54.5q0 -31 -22.5 -53t-53.5 -22t-53.5 22.5t-22.5 52.5z" />
<glyph unicode="&#x3c;" horiz-adv-x="493" d="M55 528l330 377l53 -47l-297 -330l295 -321l-55 -49z" />
<glyph unicode="=" d="M137 598v68h907v-68h-907zM137 809v70h907v-70h-907z" />
<glyph unicode="&#x3e;" horiz-adv-x="495" d="M55 201l299 327l-297 328l56 49l327 -375l-331 -378z" />
<glyph unicode="?" horiz-adv-x="880" d="M18 1073q0 197 115 317.5t299 120.5q174 0 297 -120.5t123 -296.5q0 -168 -101.5 -277.5t-275.5 -130.5v-362l-84 2v434h47q137 0 233.5 96t96.5 238q0 145 -96.5 243.5t-241.5 98.5q-143 0 -236.5 -97.5t-93.5 -248.5v-17h-82zM358 59q0 33 21.5 54.5t54.5 21.5 t54.5 -21.5t21.5 -54.5q0 -31 -22.5 -53t-53.5 -22t-53.5 22.5t-22.5 52.5z" />
<glyph unicode="@" horiz-adv-x="1699" d="M117 737q0 129 39 247t122.5 233.5t213 191.5t221.5 87t135 11q268 0 442 -178t174 -459q0 -53 -19.5 -190t-111.5 -254t-154.5 -126t-70.5 -9h-12q-74 0 -124 48t-50 116v18q-12 -41 -43 -76q-70 -82 -168 -82q-49 0 -148.5 47.5t-99.5 337.5l6 74q18 129 71.5 229.5 t110 141.5t96 55t76.5 14q115 0 174 -116l9 -21l20 131l96 -2l-80 -450l-2 -13l-26 -174q-4 -14 -4 -29.5v-23.5q0 -39 15 -92t85 -53q14 0 36.5 9t50.5 30.5t63.5 65.5t62.5 116t37 147.5t10 128.5q0 248 -145.5 402.5t-370.5 154.5q-55 0 -190.5 -21.5t-288 -215 t-152.5 -453.5q0 -96 40 -260t203 -295t368 -131q80 0 156.5 20.5t130 51.5t68.5 42t68.5 54t104.5 105l49 -46l-53 -59q-123 -125 -255 -184.5t-280 -59.5q-274 0 -470.5 186.5t-216 359.5t-19.5 218zM569 594q0 -47 6.5 -73.5t18.5 -55.5q35 -76 119 -76q55 0 91 35 t56.5 67.5t39 89t28.5 97.5t18 88l4 20l13 88q6 43 6 76q0 72 -45 125t-103 53q-76 0 -115.5 -53t-60 -94t-42 -104.5t-30.5 -163.5q-4 -23 -4 -45.5v-34.5v-39z" />
<glyph unicode="A" d="M-53 0l647 1522l643 -1522h-92l-201 485h-700l-201 -485h-96zM276 561h631l-280 688q-16 39 -22.5 59.5t-10.5 65.5q-4 -25 -9 -51.5t-24 -73.5z" />
<glyph unicode="B" horiz-adv-x="1099" d="M152 0v1477l344 -2q184 0 290.5 -96.5t106.5 -268.5q0 -256 -238 -338q172 0 275.5 -107.5t103.5 -273.5q0 -90 -36.5 -172t-99 -132t-138.5 -68.5t-213 -18.5h-395zM240 72h290q113 0 179.5 14t118 53t82 107.5t30.5 150.5q0 113 -61.5 195t-159.5 107.5t-223 25.5h-256 v-653zM242 799h252q139 0 223 82t84 221q0 141 -88 221t-246 80h-225v-604z" />
<glyph unicode="C" horiz-adv-x="1421" d="M78 733q0 326 225 551t551 225q145 0 252.5 -42t241.5 -152l20 -15v-118q-121 127 -247 186t-275 59q-283 0 -481.5 -202.5t-198.5 -489.5t198.5 -487.5t485.5 -200.5q301 0 518 242v-113q-143 -119 -256 -164t-262 -45q-326 0 -549 221.5t-223 544.5z" />
<glyph unicode="D" horiz-adv-x="1329" d="M152 0v1477h387q311 0 512.5 -208t201.5 -530q0 -330 -204.5 -534.5t-538.5 -204.5h-358zM244 78h254q219 0 361 90t221 240.5t79 324.5q0 293 -176 479.5t-455 186.5h-284v-1321z" />
<glyph unicode="E" horiz-adv-x="960" d="M152 0v1477h712v-78h-622v-563h620v-78h-622v-680h624v-78h-712z" />
<glyph unicode="F" horiz-adv-x="817" d="M152 0v1477h628v-78h-538v-563h534v-78h-536v-758h-88z" />
<glyph unicode="G" horiz-adv-x="1648" d="M78 733q0 326 225 553t549 227q319 0 457.5 -137t195.5 -219l-67 -59q-37 53 -49.5 68.5t-135.5 140.5t-401 125q-289 0 -485.5 -201t-196.5 -496q0 -297 194.5 -493.5t489.5 -196.5q268 0 452.5 166t184.5 420h-508v78h604q0 -330 -204.5 -537t-530.5 -207 q-332 0 -553 219t-221 549z" />
<glyph unicode="H" horiz-adv-x="1388" d="M152 0v1475h90v-639h905v639h90v-1475h-88v762h-909v-762h-88z" />
<glyph unicode="I" horiz-adv-x="391" d="M152 0v1475h88v-1475h-88z" />
<glyph unicode="J" horiz-adv-x="665" d="M-31 135l78 53q20 -63 68.5 -101t111.5 -38q90 0 146 60q29 35 41 91t12 160v1115h88v-1139q0 -92 -16.5 -171t-87 -136.5t-177.5 -57.5q-184 0 -264 164z" />
<glyph unicode="K" horiz-adv-x="1097" d="M152 0v1475h88v-682q0 -39 -13 -95l31 41l6 2l19 23l684 713h110l-684 -713l752 -764h-125l-680 705l-102 -107v-598h-86z" />
<glyph unicode="L" horiz-adv-x="673" d="M152 0v1475h88v-1397h419v-78h-507z" />
<glyph unicode="M" horiz-adv-x="1812" d="M57 0l240 1536l567 -1274l21 -51q8 -16 11 -29.5t11 -56.5q12 68 43 137l568 1274l237 -1536h-94l-168 1178l-10 47l-2 28l4 58q-8 -41 -14.5 -66.5t-20.5 -58.5l-543 -1229l-542 1229q-16 43 -22.5 61.5t-14.5 63.5l4 -60l-2 -26l-6 -47l-170 -1178h-97z" />
<glyph unicode="N" horiz-adv-x="1644" d="M152 0v1530l1171 -1274q31 -27 45 -53q10 -12 20.5 -29.5t26.5 -46.5q-4 25 -8 47.5t-4 46.5l2 64v1190h88v-1520l-1178 1278q-10 12 -36.5 49t-55.5 80q18 -66 19 -88l-2 -64v-1210h-88z" />
<glyph unicode="O" horiz-adv-x="1695" d="M78 737q0 326 222 550t548 224t549 -223t223 -551q0 -326 -223 -551t-549 -225t-548 224.5t-222 551.5zM168 737q0 -291 197.5 -492.5t482.5 -201.5q287 0 484.5 201.5t197.5 492.5q0 287 -198.5 490t-481.5 203q-287 0 -484.5 -202t-197.5 -491z" />
<glyph unicode="P" horiz-adv-x="937" d="M152 0v1477h342q182 0 294.5 -106.5t112.5 -280.5q0 -104 -49 -195.5t-112.5 -128.5t-121 -49t-139.5 -12h-237v-705h-90zM240 776h227q162 0 252 82t90 232q0 145 -90 229t-244 84h-235v-627z" />
<glyph unicode="Q" horiz-adv-x="1695" d="M78 737q0 324 223 549t547 225q326 0 549 -223t223 -551q0 -168 -48 -278.5t-87 -165.5t-119 -137l164 -164l-66 -66l-161 176l-93 -51q-78 -41 -178 -65.5t-188 -24.5q-319 0 -542.5 225.5t-223.5 550.5zM168 737q0 -289 196.5 -491.5t481.5 -202.5q172 0 323 82l76 47 l-371 401l74 58l363 -412q82 100 150.5 206.5t68.5 305.5q0 295 -196.5 498t-483.5 203q-285 0 -483.5 -203t-198.5 -492z" />
<glyph unicode="R" horiz-adv-x="966" d="M152 0v1477h307q188 0 304 -107.5t116 -279.5q0 -178 -117 -283t-316 -105l492 -702h-111l-477 698h-110v-698h-88zM240 768h166q172 0 274 86t102 231q0 139 -92 227.5t-241 88.5h-209v-633z" />
<glyph unicode="S" horiz-adv-x="1001" d="M35 229l67 62q6 -10 25.5 -43t97.5 -118t260 -85q150 0 251.5 99.5t101.5 244.5q0 137 -65.5 194.5t-116 85t-161 72.5t-154.5 69t-135 93.5t-91 243.5q0 154 108.5 258t270.5 104q154 0 232.5 -61.5t123.5 -118.5l-59 -63q-63 86 -134 125t-161 39q-123 0 -205 -80 t-82 -201q0 -84 43 -154q18 -23 33.5 -38t43 -35.5t65.5 -41t117 -52t107.5 -44t171 -87t142.5 -304.5q0 -186 -128 -308t-323 -122q-219 0 -306 92t-103.5 112.5t-36.5 61.5z" />
<glyph unicode="T" horiz-adv-x="847" d="M-10 1399v78h868l4 -78h-395v-1399h-88v1399h-389z" />
<glyph unicode="U" horiz-adv-x="1380" d="M152 561v914h90v-951q0 -209 125 -344t319 -135q201 0 327 132t126 347v951h90v-914q0 -160 -43 -283.5t-182.5 -218t-313.5 -94.5q-227 0 -346 116t-155.5 219t-36.5 261z" />
<glyph unicode="V" horiz-adv-x="1048" d="M-55 1475h100l447 -1209l18 -45q6 -20 10 -42.5t4 -59.5q0 63 17 102l16 45l451 1209h96l-580 -1520z" />
<glyph unicode="W" horiz-adv-x="1888" d="M-37 1475h96l400 -1207q10 -33 17 -67.5t7 -73.5q0 47 5.5 73.5t19.5 67.5l438 1266l438 -1266q6 -20 13.5 -69t7.5 -72q14 102 27 141l399 1207h96l-514 -1534l-432 1241q-16 47 -25.5 88t-9.5 90q-16 -115 -39 -178l-432 -1241z" />
<glyph unicode="X" horiz-adv-x="1083" d="M27 0l462 770l-411 707h108l312 -559l22 -39l23 -54q14 45 22 54l19 39l317 557h105l-412 -705l465 -770h-111l-364 629l-19 33q-10 14 -22 59l-25 -59l-20 -33l-367 -629h-104z" />
<glyph unicode="Y" horiz-adv-x="907" d="M-66 1475h103l371 -619q18 -29 27 -51.5t20 -54.5q12 53 43 106l372 619h105l-477 -785v-690h-90v690z" />
<glyph unicode="Z" horiz-adv-x="1103" d="M39 0l831 1323q10 16 31 45t33 43q-29 -6 -47.5 -8t-50.5 -2h-756v76h983l-827 -1323q-31 -51 -74 -95q35 10 65 15h49h781l-2 -74h-1016z" />
<glyph unicode="[" horiz-adv-x="403" d="M121 -119v1714h285v-55h-203v-1603h203v-56h-285z" />
<glyph unicode="\" horiz-adv-x="622" d="M113 1475h92l258 -1475h-92z" />
<glyph unicode="]" horiz-adv-x="403" d="M-2 -63h203v1603h-203l2 55h281v-1714h-281z" />
<glyph unicode="^" horiz-adv-x="497" d="M-16 1026l229 289h70l229 -287l-55 -35l-207 252l-213 -254z" />
<glyph unicode="_" horiz-adv-x="1040" d="M113 0h737v-47h-737v47z" />
<glyph unicode="`" horiz-adv-x="358" d="M-12 1264l71 53l238 -305l-61 -19z" />
<glyph unicode="a" horiz-adv-x="1142" d="M78 455q0 199 130 339t314 140q190 0 267 -89t120 -190v246h80v-901h-82v264q-41 -133 -144.5 -208.5t-242.5 -75.5q-186 0 -314 138t-128 337zM162 457q0 -164 110.5 -283t264.5 -119q152 0 262 119t110 283q0 166 -109.5 283.5t-262.5 117.5q-154 0 -264.5 -118.5 t-110.5 -282.5z" />
<glyph unicode="b" horiz-adv-x="1140" d="M152 0v1683h84v-1034q35 129 139 207t243 78q188 0 317.5 -139.5t129.5 -337.5q0 -201 -129 -338t-318 -137q-139 0 -241.5 73.5t-147.5 206.5v-262h-77zM229 446q0 -166 107.5 -277.5t265.5 -111.5t265.5 116t107.5 284q0 166 -106.5 282.5t-262.5 116.5 q-160 0 -268.5 -117t-108.5 -293z" />
<glyph unicode="c" horiz-adv-x="892" d="M78 455q0 201 134 341t329 140q176 0 299 -119v-112l-41 51q-98 98 -250 98q-164 0 -273.5 -113.5t-109.5 -281.5t108.5 -287t264.5 -119q174 0 299 148v-101q-125 -125 -303 -125q-190 0 -323.5 139.5t-133.5 340.5z" />
<glyph unicode="d" horiz-adv-x="1142" d="M78 459q0 197 131 336t317 139q135 0 236.5 -75t144.5 -208v1032h82v-1683h-82v274q-41 -141 -140 -216.5t-245 -75.5q-190 0 -317 137t-127 340zM166 459q0 -170 107.5 -286t263.5 -116t264 117t108 285q0 166 -108.5 282.5t-261.5 116.5q-156 0 -264.5 -116.5 t-108.5 -282.5z" />
<glyph unicode="e" horiz-adv-x="1038" d="M78 453q0 201 130 341t320 140q199 0 324 -137.5t125 -360.5h-815q0 -166 105.5 -273.5t262.5 -107.5q113 0 207 63.5t135 166.5l68 -39q-139 -262 -412 -262q-188 0 -319 135t-131 334zM166 504h719q0 166 -100.5 264t-258.5 98q-147 0 -243.5 -96t-116.5 -266z" />
<glyph unicode="f" horiz-adv-x="413" d="M55 829v72h109v492q0 121 33 176q66 123 188 123q20 0 61 -11v-79q-31 10 -47 10q-61 0 -107 -50.5t-46 -197.5v-463h176v-72h-178v-829h-80v829h-109z" />
<glyph unicode="g" horiz-adv-x="1138" d="M78 446q0 201 129 342.5t313 141.5q135 0 236.5 -75t148.5 -206v252h80v-911q0 -156 -43 -267.5t-153.5 -185.5t-251.5 -74q-199 0 -327 124t-128 327h94q0 -164 102.5 -270.5t256.5 -106.5q170 0 270 117t100 313v299q-27 -125 -134 -205.5t-251 -80.5q-186 0 -314 134 t-128 332zM162 453q0 -168 108.5 -285t266.5 -117q156 0 263 116t107 286q0 166 -107.5 283.5t-262.5 117.5q-158 0 -266.5 -116.5t-108.5 -284.5z" />
<glyph unicode="h" horiz-adv-x="1017" d="M152 0v1683h81v-1011q35 117 123 184.5t207 67.5q141 0 223 -88t82 -244v-592h-84v561q0 139 -64.5 214t-180.5 75q-141 0 -223.5 -106.5t-82.5 -288.5v-455h-81z" />
<glyph unicode="i" horiz-adv-x="397" d="M129 1231q0 27 20.5 49.5t49.5 22.5q31 0 51 -20.5t20 -51.5t-20.5 -51.5t-50.5 -20.5q-29 0 -49.5 20.5t-20.5 51.5zM158 0v901h82v-901h-82z" />
<glyph unicode="j" horiz-adv-x="391" d="M121 1231q0 29 21.5 50.5t50.5 21.5q31 0 51 -20.5t20 -51.5q0 -29 -20.5 -50.5t-50.5 -21.5q-31 0 -51.5 20.5t-20.5 51.5zM152 -516v1417h84v-1417h-84z" />
<glyph unicode="k" horiz-adv-x="821" d="M152 0v1683h84v-1120v-26q0 -31 -7 -74q29 43 39 53l29 27l346 358h111l-383 -391l479 -510h-115l-420 455l-79 -82v-373h-84z" />
<glyph unicode="l" horiz-adv-x="385" d="M152 0v1683h84v-1683h-84z" />
<glyph unicode="m" horiz-adv-x="1507" d="M152 0v901h84v-219q35 111 109.5 174.5t174.5 63.5q104 0 176 -57.5t92 -160.5q33 104 108 163t175 59q150 0 217.5 -90.5t67.5 -237.5v-596h-82v561q0 86 -8.5 123t-53.5 100.5t-168 63.5q-111 0 -174 -80t-63 -219v-549h-86v553q0 289 -227 289q-125 0 -191.5 -103.5 t-66.5 -298.5v-440h-84z" />
<glyph unicode="n" horiz-adv-x="1013" d="M152 0v901h84l-3 -233q37 121 121 186.5t199 65.5q129 0 220 -84t91 -263v-573h-88v551q0 293 -248 293q-129 0 -210.5 -98.5t-81.5 -256.5v-489h-84z" />
<glyph unicode="o" horiz-adv-x="1071" d="M78 449q0 209 131 348t328 139q195 0 325.5 -139.5t130.5 -347.5q0 -205 -131 -344.5t-325 -139.5q-197 0 -328 137.5t-131 346.5zM162 449q0 -172 106.5 -289t268.5 -117q160 0 266 114.5t106 291.5q0 176 -106.5 292.5t-265.5 116.5q-162 0 -268.5 -116.5 t-106.5 -292.5z" />
<glyph unicode="p" horiz-adv-x="1142" d="M152 -516v1417h84v-250q45 129 148 205t239 76q184 0 313 -139.5t129 -337.5q0 -201 -128 -339.5t-314 -138.5q-139 0 -245 79t-142 210v-782h-84zM233 457q0 -170 108 -288t265 -118q156 0 264.5 115t108.5 283q0 172 -106.5 288.5t-266.5 116.5q-154 0 -263.5 -117.5 t-109.5 -279.5z" />
<glyph unicode="q" horiz-adv-x="1144" d="M78 453q0 201 128 339t314 138q139 0 246.5 -80t142.5 -213v264h82v-1417h-82v782q-43 -133 -147.5 -211t-241.5 -78q-186 0 -314 138.5t-128 337.5zM164 446q0 -160 110.5 -276.5t262.5 -116.5q156 0 264 115t108 285t-107.5 285.5t-262.5 115.5q-158 0 -266.5 -119 t-108.5 -289z" />
<glyph unicode="r" horiz-adv-x="530" d="M152 0v901h84v-221q27 111 98.5 174.5t169.5 63.5q25 0 45 -4.5t51 -12.5l-14 -86q-53 20 -94 21q-117 0 -186.5 -92.5t-69.5 -245.5v-498h-84z" />
<glyph unicode="s" horiz-adv-x="718" d="M37 182l76 39q68 -172 243 -172q94 0 153.5 53.5t59.5 137.5q0 63 -35.5 101t-127.5 77l-66 24q-98 41 -133 66q-106 63 -107 186q0 100 73 169t179 69q164 0 240 -135l-74 -37q-45 104 -164 104q-76 0 -124 -46t-48 -116q0 -98 58.5 -128.5t86 -42t92 -35t77 -28.5 t84 -47t71.5 -175q0 -119 -83 -194t-214 -75q-221 0 -317 205z" />
<glyph unicode="t" horiz-adv-x="403" d="M49 901h107v334l82 2v-336h178l-2 -72h-178v-829h-80v829h-105z" />
<glyph unicode="u" horiz-adv-x="1009" d="M152 360v541h86v-530q0 -311 266 -312q129 0 184 62.5t69.5 114t14.5 135.5v530h84v-541q0 -104 -26.5 -183t-116.5 -136t-209 -57q-172 0 -262 96t-90 280z" />
<glyph unicode="v" horiz-adv-x="776" d="M-43 901h96l303 -690q23 -47 31 -111l33 111l307 690h92l-430 -948z" />
<glyph unicode="w" horiz-adv-x="1398" d="M-33 901h92l267 -682l14 -37q10 -25 20 -76q4 29 11.5 58t17.5 53l313 733l308 -733q8 -20 16 -48t12 -63q6 27 9.5 38.5t11.5 37.5l14 37l268 682h95l-396 -950l-299 706l-14 31l-2 10q-10 25 -13 35t-12 58q-8 -45 -16 -71t-25 -63l-301 -706z" />
<glyph unicode="x" horiz-adv-x="866" d="M8 0l373 471l-336 430h109l247 -323l33 -58q14 35 33 58l246 323h108l-336 -430l371 -471h-102l-291 373q-20 25 -29 61q-10 -37 -31 -61l-290 -373h-105z" />
<glyph unicode="y" horiz-adv-x="806" d="M-49 901h92l336 -739q16 -37 22.5 -55.5t10.5 -45.5q4 25 9 42.5t21 56.5l324 741h88l-614 -1417l-93 -2l220 502z" />
<glyph unicode="z" horiz-adv-x="888" d="M25 0l628 770q6 10 23.5 27.5t50.5 44.5l-59 -11h-37h-557l-4 70h782l-629 -772l-20 -25q-12 -14 -25.5 -25t-25.5 -22q8 2 29.5 8.5t31.5 6.5l35 -2h610l6 -70h-839z" />
<glyph unicode="{" horiz-adv-x="645" d="M113 737q55 0 90 41.5t35 104.5v696q0 119 149 119h96v-53h-22q-76 0 -98.5 -25t-22.5 -104v-627q0 -96 -52 -123t-77 -29q57 -6 93 -48t36 -103v-627q0 -82 21.5 -105.5t99.5 -23.5h22v-53h-96q-150 0 -149 119v696q0 98 -80 133z" />
<glyph unicode="|" horiz-adv-x="344" d="M113 0v1475h92v-1475h-92z" />
<glyph unicode="}" horiz-adv-x="645" d="M113 -170h22q76 0 98.5 24.5t22.5 104.5v627q0 61 36 103t93 48q-57 6 -93 48t-36 104v627q0 82 -21.5 105.5t-99.5 23.5h-22v53h96q150 0 149 -119v-696q0 -63 34 -102.5t91 -43.5q-55 -4 -90 -43t-35 -102v-696q0 -119 -149 -119h-96v53z" />
<glyph unicode="~" horiz-adv-x="729" d="M-16 1618q87 80 198 80q25 0 38 -1t52 -9l39 -13l51 -8l44 -8l47 -8q14 -2 33.5 -4t33.5 -2q51 0 89 12t93 45l39 -33q-90 -102 -213 -102l-57 2h-14l-49 10l-48 8l-43 12l-10 3l-31 6l-43 10l-75 4l-56 -8q-35 -8 -44 -12.5t-33 -18.5z" />
<glyph unicode="&#xa1;" horiz-adv-x="319" d="M98 1399q0 31 20.5 53.5t51.5 22.5q33 0 55.5 -20.5t22.5 -55.5q0 -33 -21.5 -54.5t-54.5 -21.5q-29 0 -51.5 22.5t-22.5 53.5zM131 -16v1151h84v-1151h-84z" />
<glyph unicode="&#xa2;" horiz-adv-x="933" d="M78 449q0 100 37 190t103.5 156.5t134 93t94 34t81.5 7.5v114h52v-114q55 0 79.5 -4t64.5 -17.5t77 -35t78 -56.5v-112q-14 25 -18.5 29.5t-40.5 37.5t-86 51.5t-76.5 22.5t-77.5 4v-807q55 0 76.5 6t85 36t137.5 105v-102l-29 -25q-45 -37 -102.5 -59t-85 -28.5 t-82.5 -6.5v-127h-50v127q-57 0 -86.5 7.5t-121 45t-168 156.5t-76.5 271zM170 444q0 -115 64.5 -218t128 -131.5t89 -38t76.5 -9.5v797q-154 -20 -245 -109q-47 -49 -80 -132t-33 -159z" />
<glyph unicode="&#xa3;" horiz-adv-x="1130" d="M57 6l2 84q117 41 203 172t86 268q0 29 -5 49.5t-19 71.5h-213l2 68h184l-16 31l-11 18l-55 102q-31 49 -45 99.5t-14 101.5q0 170 128 292t308 122q172 0 295 -106.5t141 -270.5l-84 -33q0 145 -102.5 241.5t-249.5 96.5q-145 0 -247.5 -102.5t-102.5 -247.5 q0 -92 59 -191l61 -92l31 -61h463l-2 -68h-446q18 -74 18 -123q0 -119 -61.5 -233.5t-163.5 -179.5q23 8 52.5 12t55.5 4q47 0 85 -6t93 -19l109 -28q25 -8 80 -14.5t98 -6.5q156 0 268 107l39 -66q-121 -121 -305 -121q-41 0 -103.5 8.5t-109.5 18.5l-117 29 q-104 27 -188 26q-115 0 -201 -53z" />
<glyph unicode="&#xa4;" horiz-adv-x="1009" d="M113 440l135 135q-57 70 -58 162q0 92 56 164l-133 125l12 16l12 17l15 14l14 12l135 -129q72 53 168 54q43 0 84 -12.5t80 -41.5l131 131q35 -27 57 -59l-135 -127q51 -72 51 -164q0 -90 -53 -162l135 -137l-14 -12l-12 -14l-17 -15l-16 -12l-131 133q-76 -55 -164 -55 q-90 0 -164 57l-135 -133q-25 18 -41 39zM276 737q0 -76 55.5 -131t133.5 -55t132 55.5t54 132.5q0 76 -54 130.5t-132 54.5q-80 0 -134.5 -54.5t-54.5 -132.5z" />
<glyph unicode="&#xa5;" horiz-adv-x="1148" d="M55 1475h105l368 -619q18 -29 28.5 -53.5t16.5 -52.5q8 33 17.5 54t30.5 52l368 621h105l-408 -689h350v-77h-399l-16 -21v-22h415v-74h-415v-594h-93v594h-407v74h407v22l-12 21h-395v77h352z" />
<glyph unicode="&#xa7;" horiz-adv-x="1044" d="M61 709q0 119 68 198.5t188 106.5q-147 112 -147 274q0 143 110.5 247.5t266.5 104.5q164 0 270.5 -102t106.5 -264l-86 2q0 129 -84 213t-209 84q-115 0 -199 -84t-84 -197q0 -92 54.5 -162.5t150.5 -99.5l301 -92q217 -66 217 -289q0 -115 -65.5 -192.5t-184.5 -106.5 q143 -109 144 -274q0 -152 -106.5 -252t-268.5 -100q-160 0 -266.5 100t-106.5 254v16l82 -4q0 -131 84 -217t211 -86q117 0 200 83t83 200q0 205 -211 266l-297 90q-106 31 -164 104.5t-58 178.5zM152 715q0 -78 51 -142.5t131 -87.5l282 -75q16 -4 32 -4h32 q88 0 154.5 68.5t66.5 158.5q0 84 -50 150.5t-130 88.5l-285 82l-69 7q-88 0 -151.5 -72t-63.5 -174z" />
<glyph unicode="&#xa8;" horiz-adv-x="327" d="M-76 1126q0 29 19.5 48.5t50.5 19.5q29 0 48 -19.5t19 -48.5t-19 -48t-48 -19q-31 0 -50.5 19.5t-19.5 47.5zM268 1126q0 68 66 68q68 0 67 -68q0 -29 -19.5 -48t-47.5 -19q-29 0 -47.5 18.5t-18.5 48.5z" />
<glyph unicode="&#xa9;" horiz-adv-x="1908" d="M119 739q0 318 223 541q109 109 251 165t292 56t289 -56t248.5 -165t166 -251t56.5 -292t-56.5 -289t-166 -249.5t-250 -167t-291.5 -56.5q-150 0 -289 56.5t-306 223.5t-167 484zM203 739q0 -139 51 -263t149 -224t222.5 -150.5t259.5 -50.5q133 0 256 50.5t221 150.5 t148.5 225t50.5 262q0 133 -50.5 260t-148.5 227.5t-222 150.5t-259 50q-133 0 -256 -50t-219.5 -148.5t-149.5 -226.5t-53 -263zM387 723q0 94 47 221t178 217t295 90q55 0 145.5 -14t200.5 -111l-49 -69q-86 80 -154.5 93t-93 15t-47.5 2q-156 0 -273.5 -101t-134 -201.5 t-16.5 -139.5q0 -184 125 -306t299 -122q129 0 186.5 36t73 46t31.5 27l51 -68q-72 -61 -155.5 -93t-180.5 -32q-225 0 -376.5 147.5t-151.5 362.5z" />
<glyph unicode="&#xaa;" horiz-adv-x="978" d="M113 1149q0 33 15 113.5t104.5 157.5t201.5 77q31 0 110 -16.5t136 -128.5l10 -17l6 -14v154h97v-656h-99v164l-6 -16q-31 -74 -101.5 -118t-156.5 -44q-45 0 -88 12t-119 63.5t-93 142.5t-17 126zM135 625v90h658v-90h-658zM215 1149q0 -33 4 -49q23 -109 95.5 -158 t140.5 -49q74 0 143.5 49t83.5 115.5t14 97.5q0 49 -22 105l-21 38q-33 53 -86 82t-110 29q-98 0 -162 -66.5t-72 -114.5t-8 -79z" />
<glyph unicode="&#xab;" horiz-adv-x="749" d="M55 528l330 377l53 -47l-297 -330l295 -321l-55 -49zM315 528l330 377l53 -47l-297 -330l293 -321l-55 -49z" />
<glyph unicode="&#xac;" horiz-adv-x="1226" d="M113 737v92h909v-387h-86v295h-823z" />
<glyph unicode="&#xad;" horiz-adv-x="514" d="M55 426v72h406v-72h-406z" />
<glyph unicode="&#xae;" horiz-adv-x="1908" d="M119 739q0 318 223 541q109 109 251 165t292 56t289 -56t248.5 -165t166 -251t56.5 -292t-56.5 -289t-166 -249.5t-250 -167t-291.5 -56.5q-150 0 -289 56.5t-306 223.5t-167 484zM203 739q0 -139 51 -263t149 -224t222.5 -150.5t259.5 -50.5q133 0 256 50.5t221 150.5 t148.5 225t50.5 262q0 133 -50.5 260t-148.5 227.5t-222 150.5t-259 50q-133 0 -256 -50t-219.5 -148.5t-149.5 -226.5t-53 -263zM662 250v999h202q82 0 129 -13t100.5 -57t65.5 -106.5t12 -91.5q0 -106 -64.5 -177t-174.5 -83h-41l328 -471h-117l-344 508v-508h-96z M758 784h86q229 0 229 189q0 92 -55 143t-158 51h-102v-383z" />
<glyph unicode="&#xb1;" horiz-adv-x="1216" d="M90 39v139h946v-139h-946zM90 539v139h404v250h139v-250h403v-139h-403v-250h-139v250h-404z" />
<glyph unicode="&#xb4;" horiz-adv-x="327" d="M61 1012l240 303l74 -51l-254 -273z" />
<glyph unicode="&#xb5;" horiz-adv-x="1275" d="M150 -285l4 119l4 182l-2 207l-4 195v502h188v-607q0 -145 28.5 -194t102.5 -49q117 0 194.5 165.5t77.5 417.5v267h189v-672q0 -92 19.5 -135t58.5 -43q41 0 64.5 42t23.5 126v28h43l2 -18v-27q0 -113 -48 -176t-137 -63q-100 0 -154 88t-54 264q-47 -182 -126 -267 t-198 -85q-86 0 -150 53q-57 55 -81 158l-2 -58q0 -133 65.5 -290.5t65.5 -186.5q0 -41 -22.5 -63.5t-63.5 -22.5q-47 0 -67.5 35t-20.5 108z" />
<glyph unicode="&#xb6;" horiz-adv-x="1292" d="M113 1100q0 156 109.5 265.5t262.5 109.5h598v-82h-600q-119 0 -202.5 -86t-83.5 -213q0 -119 85 -204t203 -85h150v512h82v-1317h-82v723h-150q-154 0 -263 109.5t-109 267.5zM862 0v1317h82v-1317h-82z" />
<glyph unicode="&#xb8;" horiz-adv-x="247" d="M76 -324l96 271l68 -29l-123 -262z" />
<glyph unicode="&#xba;" horiz-adv-x="983" d="M113 1153l6 68q20 111 88.5 183.5t128 85.5t83 13t38.5 2q33 0 103.5 -14t140 -86t83 -145.5t13.5 -106.5t-13.5 -104.5t-83 -144.5t-141.5 -88t-106 -15q-33 0 -103.5 14t-140.5 87t-90 183zM125 625v90h659v-90h-659zM213 1153q0 -110 66 -182q70 -78 174 -78 q61 0 117.5 31.5t91 90t34.5 138.5q0 82 -35.5 140.5t-90 90t-117.5 31.5q-102 0 -171 -74.5t-69 -187.5z" />
<glyph unicode="&#xbb;" horiz-adv-x="755" d="M55 201l299 327l-297 328l56 49l327 -375l-331 -378zM315 201l297 327l-295 328l56 49l327 -375l-333 -378z" />
<glyph unicode="&#xbf;" horiz-adv-x="880" d="M18 406q0 168 100.5 276.5t274.5 130.5v361h82v-437l-43 2q-137 0 -233.5 -98t-96.5 -238q0 -143 97.5 -242.5t240.5 -99.5t236.5 97.5t93.5 249.5l-2 14h82q0 -195 -116 -316.5t-296 -121.5q-178 0 -299 120.5t-121 301.5zM360 1438q0 31 21.5 52t54.5 21 q31 0 53.5 -20.5t22.5 -52.5q0 -31 -22.5 -53.5t-53.5 -22.5q-33 0 -54.5 21.5t-21.5 54.5z" />
<glyph unicode="&#xc0;" d="M-53 0l647 1522l643 -1522h-92l-201 485h-700l-201 -485h-96zM276 561h631l-280 688q-16 39 -22.5 59.5t-10.5 65.5q-4 -25 -9 -51.5t-24 -73.5zM400 1909l71 53l238 -305l-61 -19z" />
<glyph unicode="&#xc1;" d="M-53 0l647 1522l643 -1522h-92l-201 485h-700l-201 -485h-96zM276 561h631l-280 688q-16 39 -22.5 59.5t-10.5 65.5q-4 -25 -9 -51.5t-24 -73.5zM489 1657l240 303l74 -51l-254 -273z" />
<glyph unicode="&#xc2;" d="M-53 0l647 1522l643 -1522h-92l-201 485h-700l-201 -485h-96zM276 561h631l-280 688q-16 39 -22.5 59.5t-10.5 65.5q-4 -25 -9 -51.5t-24 -73.5zM326 1671l229 289h70l229 -287l-55 -35l-207 252l-213 -254z" />
<glyph unicode="&#xc3;" d="M-53 0l647 1522l643 -1522h-92l-201 485h-700l-201 -485h-96zM276 561h631l-280 688q-16 39 -22.5 59.5t-10.5 65.5q-4 -25 -9 -51.5t-24 -73.5zM291 1720q71 74 155 74q29 0 74 -10l31 -11l39 -8l36 -8q12 -4 45 -8t46 -4q72 0 143 53l31 -33q-76 -90 -170 -90h-21 l-35 2l-39 8l-36 7l-35 12l-10 2l-21 6l-49 10l-47 4q-25 0 -53.5 -10t-55.5 -29z" />
<glyph unicode="&#xc4;" d="M-53 0l647 1522l643 -1522h-92l-201 485h-700l-201 -485h-96zM276 561h631l-280 688q-16 39 -22.5 59.5t-10.5 65.5q-4 -25 -9 -51.5t-24 -73.5zM336 1628q0 31 23.5 52.5t52.5 21.5q33 0 54 -21.5t21 -52.5q0 -33 -21.5 -54.5t-53.5 -21.5q-31 0 -53.5 20.5t-22.5 55.5z M698 1628q0 29 22.5 51.5t53.5 22.5t52.5 -21.5t21.5 -52.5q0 -33 -21.5 -54.5t-54.5 -21.5q-31 0 -52.5 21.5t-21.5 54.5z" />
<glyph unicode="&#xc5;" d="M-53 0l624 1458q-82 33 -113.5 67t-31.5 93q0 74 48 126t118 52q72 0 121 -51t49 -127q0 -57 -28.5 -91t-110.5 -69l614 -1458h-92l-201 485h-700l-201 -485h-96zM276 561h631l-280 688q-16 39 -22.5 59.5t-10.5 65.5q-4 -25 -9 -51.5t-24 -73.5zM485 1630q0 -49 32 -83 t77 -34q47 0 79 34t32 83q0 43 -33 76t-78 33t-77 -32t-32 -77z" />
<glyph unicode="&#xc6;" horiz-adv-x="1839" d="M-53 0l649 1526l25 -49h688l34 -78h-690l228 -561h694l35 -78h-692l276 -682h692l35 -78h-784l-199 489h-700l-201 -489h-90zM268 563h643l-282 713l-17 39q-6 14 -10 31.5t-6 29.5l-16 -63l-15 -37z" />
<glyph unicode="&#xc7;" horiz-adv-x="1400" d="M55 733q0 326 225.5 551t550.5 225q147 0 253 -41t243 -153l19 -15v-118q-121 127 -247 186t-276 59q-283 0 -481.5 -202.5t-198.5 -489.5t199 -487.5t485 -200.5q301 0 519 242v-113q-145 -121 -256 -165t-263 -44q-324 0 -548 222.5t-224 543.5zM659 -334l91 271 l65 -29l-115 -262z" />
<glyph unicode="&#xc8;" horiz-adv-x="960" d="M152 0v1477h712v-78h-622v-563h620v-78h-622v-680h624v-78h-712zM289 1909l71 53l238 -305l-61 -19z" />
<glyph unicode="&#xc9;" horiz-adv-x="960" d="M152 0v1477h712v-78h-622v-563h620v-78h-622v-680h624v-78h-712zM376 1657l240 303l74 -51l-254 -273z" />
<glyph unicode="&#xca;" horiz-adv-x="960" d="M152 0v1477h712v-78h-622v-563h620v-78h-622v-680h624v-78h-712zM215 1671l229 289h70l229 -287l-55 -35l-207 252l-213 -254z" />
<glyph unicode="&#xcb;" horiz-adv-x="960" d="M152 0v1477h712v-78h-622v-563h620v-78h-622v-680h624v-78h-712zM239 1771q0 29 19.5 48.5t50.5 19.5q29 0 48 -19.5t19 -48.5t-19 -48t-48 -19q-31 0 -50.5 19.5t-19.5 47.5zM583 1771q0 68 66 68q68 0 67 -68q0 -29 -19.5 -48t-47.5 -19q-29 0 -47.5 18.5t-18.5 48.5z " />
<glyph unicode="&#xcc;" horiz-adv-x="391" d="M4 1909l71 53l238 -305l-61 -19zM152 0v1475h88v-1475h-88z" />
<glyph unicode="&#xcd;" horiz-adv-x="391" d="M92 1657l240 303l74 -51l-254 -273zM152 0v1475h88v-1475h-88z" />
<glyph unicode="&#xce;" horiz-adv-x="391" d="M-69 1671l229 289h70l229 -287l-55 -35l-207 252l-213 -254zM152 0v1475h88v-1475h-88z" />
<glyph unicode="&#xcf;" horiz-adv-x="391" d="M-45 1771q0 29 19.5 48.5t50.5 19.5q29 0 48 -19.5t19 -48.5t-19 -48t-48 -19q-31 0 -50.5 19.5t-19.5 47.5zM152 0v1475h88v-1475h-88zM299 1771q0 68 66 68q68 0 67 -68q0 -29 -19.5 -48t-47.5 -19q-29 0 -47.5 18.5t-18.5 48.5z" />
<glyph unicode="&#xd1;" horiz-adv-x="1644" d="M152 0v1530l1171 -1274q31 -27 45 -53q10 -12 20.5 -29.5t26.5 -46.5q-4 25 -8 47.5t-4 46.5l2 64v1190h88v-1520l-1178 1278q-10 12 -36.5 49t-55.5 80q18 -66 19 -88l-2 -64v-1210h-88zM521 1720q71 74 155 74q29 0 74 -10l31 -11l39 -8l36 -8q12 -4 45 -8t46 -4 q72 0 143 53l31 -33q-76 -90 -170 -90h-21l-35 2l-39 8l-36 7l-35 12l-10 2l-21 6l-49 10l-47 4q-25 0 -53.5 -10t-55.5 -29z" />
<glyph unicode="&#xd2;" horiz-adv-x="1695" d="M78 737q0 326 222 550t548 224t549 -223t223 -551q0 -326 -223 -551t-549 -225t-548 224.5t-222 551.5zM168 737q0 -291 197.5 -492.5t482.5 -201.5q287 0 484.5 201.5t197.5 492.5q0 287 -198.5 490t-481.5 203q-287 0 -484.5 -202t-197.5 -491zM656 1909l71 53 l238 -305l-61 -19z" />
<glyph unicode="&#xd3;" horiz-adv-x="1695" d="M78 737q0 326 222 550t548 224t549 -223t223 -551q0 -326 -223 -551t-549 -225t-548 224.5t-222 551.5zM168 737q0 -291 197.5 -492.5t482.5 -201.5q287 0 484.5 201.5t197.5 492.5q0 287 -198.5 490t-481.5 203q-287 0 -484.5 -202t-197.5 -491zM745 1657l240 303 l74 -51l-254 -273z" />
<glyph unicode="&#xd4;" horiz-adv-x="1695" d="M78 737q0 326 222 550t548 224t549 -223t223 -551q0 -326 -223 -551t-549 -225t-548 224.5t-222 551.5zM168 737q0 -291 197.5 -492.5t482.5 -201.5q287 0 484.5 201.5t197.5 492.5q0 287 -198.5 490t-481.5 203q-287 0 -484.5 -202t-197.5 -491zM582 1671l229 289h70 l229 -287l-55 -35l-207 252l-213 -254z" />
<glyph unicode="&#xd5;" horiz-adv-x="1695" d="M78 737q0 326 222 550t548 224t549 -223t223 -551q0 -326 -223 -551t-549 -225t-548 224.5t-222 551.5zM168 737q0 -291 197.5 -492.5t482.5 -201.5q287 0 484.5 201.5t197.5 492.5q0 287 -198.5 490t-481.5 203q-287 0 -484.5 -202t-197.5 -491zM547 1720q71 74 155 74 q29 0 74 -10l31 -11l39 -8l36 -8q12 -4 45 -8t46 -4q72 0 143 53l31 -33q-76 -90 -170 -90h-21l-35 2l-39 8l-36 7l-35 12l-10 2l-21 6l-49 10l-47 4q-25 0 -53.5 -10t-55.5 -29z" />
<glyph unicode="&#xd6;" horiz-adv-x="1695" d="M78 737q0 326 222 550t548 224t549 -223t223 -551q0 -326 -223 -551t-549 -225t-548 224.5t-222 551.5zM168 737q0 -291 197.5 -492.5t482.5 -201.5q287 0 484.5 201.5t197.5 492.5q0 287 -198.5 490t-481.5 203q-287 0 -484.5 -202t-197.5 -491zM524 1628 q0 31 23.5 52.5t52.5 21.5q33 0 54.5 -21.5t21.5 -52.5q0 -33 -21.5 -54.5t-54.5 -21.5q-31 0 -53.5 20.5t-22.5 55.5zM1020 1628q0 29 22.5 51.5t53.5 22.5q33 0 54 -21.5t21 -52.5q0 -33 -21.5 -54.5t-53.5 -21.5q-33 0 -54.5 21.5t-21.5 54.5z" />
<glyph unicode="&#xd8;" horiz-adv-x="1708" d="M78 -12l213 211q-57 63 -100.5 125.5t-78 180.5t-34.5 232q0 326 222 550t548 224q154 0 259 -40.5t151.5 -71.5t134.5 -111l206 203l31 -33l-209 -201l78 -100q121 -178 121 -420q0 -326 -223 -551t-549 -225q-152 0 -250 38t-145 68.5t-129 102.5l-218 -213zM172 729 q0 -98 28.5 -195.5t82.5 -181.5l73 -94l975 969q-66 55 -114 85.5t-142 68.5t-221 38q-281 0 -481.5 -202.5t-200.5 -487.5zM387 229q63 -55 105.5 -83.5t134.5 -65.5t221 -37q287 0 484.5 201.5t197.5 492.5q0 215 -58.5 302t-78 112t-33.5 43z" />
<glyph unicode="&#xd9;" horiz-adv-x="1380" d="M152 561v914h90v-951q0 -209 125 -344t319 -135q201 0 327 132t126 347v951h90v-914q0 -160 -43 -283.5t-182.5 -218t-313.5 -94.5q-227 0 -346 116t-155.5 219t-36.5 261zM498 1909l71 53l238 -305l-61 -19z" />
<glyph unicode="&#xda;" horiz-adv-x="1380" d="M152 561v914h90v-951q0 -209 125 -344t319 -135q201 0 327 132t126 347v951h90v-914q0 -160 -43 -283.5t-182.5 -218t-313.5 -94.5q-227 0 -346 116t-155.5 219t-36.5 261zM587 1657l240 303l74 -51l-254 -273z" />
<glyph unicode="&#xdb;" horiz-adv-x="1380" d="M152 561v914h90v-951q0 -209 125 -344t319 -135q201 0 327 132t126 347v951h90v-914q0 -160 -43 -283.5t-182.5 -218t-313.5 -94.5q-227 0 -346 116t-155.5 219t-36.5 261zM424 1671l229 289h70l229 -287l-55 -35l-207 252l-213 -254z" />
<glyph unicode="&#xdc;" horiz-adv-x="1376" d="M152 561v914h88v-951q0 -213 122.5 -346t321.5 -133q201 0 327 132t126 347v951h88v-914q0 -172 -41 -289.5t-181.5 -212t-314.5 -94.5q-225 0 -346 117t-155.5 214t-34.5 265zM440 1649q0 33 21.5 54t54.5 21t54.5 -21.5t21.5 -53.5q0 -29 -22.5 -51.5t-53.5 -22.5 q-33 0 -54.5 21.5t-21.5 52.5zM786 1649q0 33 21.5 54t54.5 21q31 0 52.5 -21.5t21.5 -53.5q0 -31 -21.5 -52.5t-52.5 -21.5q-33 0 -54.5 21.5t-21.5 52.5z" />
<glyph unicode="&#xdf;" horiz-adv-x="1073" d="M152 0v1247q0 207 98 321.5t276 114.5q172 0 286 -109.5t114 -273.5q0 -150 -84 -248t-244 -128q190 -29 301 -152t111 -307q0 -209 -137.5 -342t-352.5 -133q-68 0 -89 3t-69 15l5 74q74 -23 145 -23q176 0 293 117t117 295q0 193 -133.5 303.5t-362.5 110.5l-39 -2v71 h35q197 0 306.5 88t109.5 248q0 141 -88 231.5t-224 90.5q-61 0 -119.5 -24.5t-116 -88t-57.5 -264.5v-1235h-81z" />
<glyph unicode="&#xe0;" horiz-adv-x="1142" d="M78 455q0 199 130 339t314 140q190 0 267 -89t120 -190v246h80v-901h-82v264q-41 -133 -144.5 -208.5t-242.5 -75.5q-186 0 -314 138t-128 337zM162 457q0 -164 110.5 -283t264.5 -119q152 0 262 119t110 283q0 166 -109.5 283.5t-262.5 117.5q-154 0 -264.5 -118.5 t-110.5 -282.5zM379 1264l71 53l238 -305l-61 -19z" />
<glyph unicode="&#xe1;" horiz-adv-x="1142" d="M78 455q0 199 130 339t314 140q190 0 267 -89t120 -190v246h80v-901h-82v264q-41 -133 -144.5 -208.5t-242.5 -75.5q-186 0 -314 138t-128 337zM162 457q0 -164 110.5 -283t264.5 -119q152 0 262 119t110 283q0 166 -109.5 283.5t-262.5 117.5q-154 0 -264.5 -118.5 t-110.5 -282.5zM469 1012l240 303l74 -51l-254 -273z" />
<glyph unicode="&#xe2;" horiz-adv-x="1142" d="M78 455q0 199 130 339t314 140q190 0 267 -89t120 -190v246h80v-901h-82v264q-41 -133 -144.5 -208.5t-242.5 -75.5q-186 0 -314 138t-128 337zM162 457q0 -164 110.5 -283t264.5 -119q152 0 262 119t110 283q0 166 -109.5 283.5t-262.5 117.5q-154 0 -264.5 -118.5 t-110.5 -282.5zM306 1026l229 289h70l229 -287l-55 -35l-207 252l-213 -254z" />
<glyph unicode="&#xe3;" horiz-adv-x="1142" d="M78 455q0 199 130 339t314 140q190 0 267 -89t120 -190v246h80v-901h-82v264q-41 -133 -144.5 -208.5t-242.5 -75.5q-186 0 -314 138t-128 337zM162 457q0 -164 110.5 -283t264.5 -119q152 0 262 119t110 283q0 166 -109.5 283.5t-262.5 117.5q-154 0 -264.5 -118.5 t-110.5 -282.5zM271 1075q71 74 155 74q29 0 74 -10l31 -11l39 -8l36 -8q12 -4 45 -8t46 -4q72 0 143 53l31 -33q-76 -90 -170 -90h-21l-35 2l-39 8l-36 7l-35 12l-10 2l-21 6l-49 10l-47 4q-25 0 -53.5 -10t-55.5 -29z" />
<glyph unicode="&#xe4;" horiz-adv-x="1142" d="M78 455q0 199 130 339t314 140q190 0 267 -89t120 -190v246h80v-901h-82v264q-41 -133 -144.5 -208.5t-242.5 -75.5q-186 0 -314 138t-128 337zM162 457q0 -164 110.5 -283t264.5 -119q152 0 262 119t110 283q0 166 -109.5 283.5t-262.5 117.5q-154 0 -264.5 -118.5 t-110.5 -282.5zM358 1151q0 29 19.5 48.5t50.5 19.5q29 0 48.5 -19.5t19.5 -48.5t-19.5 -48.5t-48.5 -19.5q-31 0 -50.5 19.5t-19.5 48.5zM702 1151q0 68 66 68q68 0 68 -68q0 -29 -19.5 -48.5t-48.5 -19.5t-47.5 18.5t-18.5 49.5z" />
<glyph unicode="&#xe5;" horiz-adv-x="1142" d="M78 455q0 199 130 339t314 140q190 0 267 -89t120 -190v246h80v-901h-82v264q-41 -133 -144.5 -208.5t-242.5 -75.5q-186 0 -314 138t-128 337zM162 457q0 -164 110.5 -283t264.5 -119q152 0 262 119t110 283q0 166 -109.5 283.5t-262.5 117.5q-154 0 -264.5 -118.5 t-110.5 -282.5zM373 1169q0 70 47 119t117 49q68 0 119 -49t51 -117q0 -72 -50.5 -119.5t-119.5 -47.5q-70 0 -117 47t-47 118zM430 1171q0 -47 32 -78.5t77 -31.5t77.5 30.5t32.5 79.5q0 45 -33.5 77t-78.5 32q-43 0 -75 -32t-32 -77z" />
<glyph unicode="&#xe6;" horiz-adv-x="1767" d="M78 319q0 145 89 247t298 102q287 0 354 -187q0 68 -5 107t-19 96q-25 94 -111 145.5t-221 51.5q-199 0 -297 -142l-23 78q29 33 95.5 83t228.5 50q195 0 291 -73.5t112 -233.5q41 135 149.5 213t258.5 78q186 0 306 -132t120 -335v-31h-805q0 -178 104.5 -280.5 t274.5 -102.5q117 0 207 63.5t119 168.5l65 -33l-8 -10l-76 -115q-92 -145 -309 -145q-158 0 -267.5 78.5t-144.5 218.5q0 -39 -7 -64t-51 -131.5t-341 -106.5q-190 0 -288.5 93.5t-98.5 248.5zM156 322q0 -125 77.5 -200t235.5 -75q348 0 348 277q0 281 -348 280 q-88 0 -142.5 -18.5t-97.5 -61.5q-73 -83 -73 -202zM905 496h721q0 174 -96 274t-254 100q-125 0 -214 -60t-130 -173q-14 -47 -20.5 -71.5t-6.5 -69.5z" />
<glyph unicode="&#xe7;" horiz-adv-x="870" d="M55 455q0 199 135.5 340t327.5 141q176 0 299 -119v-112l-41 51q-98 98 -250 98q-164 0 -273.5 -113.5t-109.5 -281.5t108.5 -287t264.5 -119q174 0 299 148v-101q-125 -125 -303 -125q-190 0 -323.5 139.5t-133.5 340.5zM375 -319l90 270l63 -29l-114 -260z" />
<glyph unicode="&#xe8;" horiz-adv-x="1038" d="M78 453q0 201 130 341t320 140q199 0 324 -137.5t125 -360.5h-815q0 -166 105.5 -273.5t262.5 -107.5q113 0 207 63.5t135 166.5l68 -39q-139 -262 -412 -262q-188 0 -319 135t-131 334zM166 504h719q0 166 -100.5 264t-258.5 98q-147 0 -243.5 -96t-116.5 -266z M328 1264l71 53l238 -305l-61 -19z" />
<glyph unicode="&#xe9;" horiz-adv-x="1038" d="M78 453q0 201 130 341t320 140q199 0 324 -137.5t125 -360.5h-815q0 -166 105.5 -273.5t262.5 -107.5q113 0 207 63.5t135 166.5l68 -39q-139 -262 -412 -262q-188 0 -319 135t-131 334zM166 504h719q0 166 -100.5 264t-258.5 98q-147 0 -243.5 -96t-116.5 -266z M415 1012l240 303l74 -51l-254 -273z" />
<glyph unicode="&#xea;" horiz-adv-x="1038" d="M78 453q0 201 130 341t320 140q199 0 324 -137.5t125 -360.5h-815q0 -166 105.5 -273.5t262.5 -107.5q113 0 207 63.5t135 166.5l68 -39q-139 -262 -412 -262q-188 0 -319 135t-131 334zM166 504h719q0 166 -100.5 264t-258.5 98q-147 0 -243.5 -96t-116.5 -266z M254 1026l229 289h70l229 -287l-55 -35l-207 252l-213 -254z" />
<glyph unicode="&#xeb;" horiz-adv-x="1038" d="M78 453q0 201 130 341t320 140q199 0 324 -137.5t125 -360.5h-815q0 -166 105.5 -273.5t262.5 -107.5q113 0 207 63.5t135 166.5l68 -39q-139 -262 -412 -262q-188 0 -319 135t-131 334zM166 504h719q0 166 -100.5 264t-258.5 98q-147 0 -243.5 -96t-116.5 -266z M278 1126q0 29 19.5 48.5t50.5 19.5q29 0 48 -19.5t19 -48.5t-19 -48t-48 -19q-31 0 -50.5 19.5t-19.5 47.5zM622 1126q0 68 66 68q68 0 67 -68q0 -29 -19.5 -48t-47.5 -19q-29 0 -47.5 18.5t-18.5 48.5z" />
<glyph unicode="&#xec;" horiz-adv-x="192" d="M-94 1264l71 53l238 -305l-61 -19zM55 0v901h82v-901h-82z" />
<glyph unicode="&#xed;" horiz-adv-x="192" d="M-7 1012l240 303l74 -51l-254 -273zM55 0v901h82v-901h-82z" />
<glyph unicode="&#xee;" horiz-adv-x="192" d="M-168 1026l229 289h70l229 -287l-55 -35l-207 252l-213 -254zM55 0v901h82v-901h-82z" />
<glyph unicode="&#xef;" horiz-adv-x="192" d="M-144 1126q0 29 19.5 48.5t50.5 19.5q29 0 48 -19.5t19 -48.5t-19 -48t-48 -19q-31 0 -50.5 19.5t-19.5 47.5zM55 0v901h82v-901h-82zM200 1126q0 68 66 68q68 0 67 -68q0 -29 -19.5 -48t-47.5 -19q-29 0 -47.5 18.5t-18.5 48.5z" />
<glyph unicode="&#xf1;" horiz-adv-x="1013" d="M152 0v901h84l-3 -233q37 121 121 186.5t199 65.5q129 0 220 -84t91 -263v-573h-88v551q0 293 -248 293q-129 0 -210.5 -98.5t-81.5 -256.5v-489h-84zM205 1075q71 74 155 74q29 0 74 -10l31 -11l39 -8l36 -8q12 -4 45 -8t46 -4q72 0 143 53l31 -33q-76 -90 -170 -90h-21 l-35 2l-39 8l-36 7l-35 12l-10 2l-21 6l-49 10l-47 4q-25 0 -53.5 -10t-55.5 -29z" />
<glyph unicode="&#xf2;" horiz-adv-x="1071" d="M78 449q0 209 131 348t328 139q195 0 325.5 -139.5t130.5 -347.5q0 -205 -131 -344.5t-325 -139.5q-197 0 -328 137.5t-131 346.5zM162 449q0 -172 106.5 -289t268.5 -117q160 0 266 114.5t106 291.5q0 176 -106.5 292.5t-265.5 116.5q-162 0 -268.5 -116.5 t-106.5 -292.5zM344 1264l71 53l238 -305l-61 -19z" />
<glyph unicode="&#xf3;" horiz-adv-x="1071" d="M78 449q0 209 131 348t328 139q195 0 325.5 -139.5t130.5 -347.5q0 -205 -131 -344.5t-325 -139.5q-197 0 -328 137.5t-131 346.5zM162 449q0 -172 106.5 -289t268.5 -117q160 0 266 114.5t106 291.5q0 176 -106.5 292.5t-265.5 116.5q-162 0 -268.5 -116.5 t-106.5 -292.5zM432 1012l240 303l74 -51l-254 -273z" />
<glyph unicode="&#xf4;" horiz-adv-x="1071" d="M78 449q0 209 131 348t328 139q195 0 325.5 -139.5t130.5 -347.5q0 -205 -131 -344.5t-325 -139.5q-197 0 -328 137.5t-131 346.5zM162 449q0 -172 106.5 -289t268.5 -117q160 0 266 114.5t106 291.5q0 176 -106.5 292.5t-265.5 116.5q-162 0 -268.5 -116.5 t-106.5 -292.5zM271 1026l229 289h70l229 -287l-55 -35l-207 252l-213 -254z" />
<glyph unicode="&#xf5;" horiz-adv-x="1071" d="M78 449q0 209 131 348t328 139q195 0 325.5 -139.5t130.5 -347.5q0 -205 -131 -344.5t-325 -139.5q-197 0 -328 137.5t-131 346.5zM162 449q0 -172 106.5 -289t268.5 -117q160 0 266 114.5t106 291.5q0 176 -106.5 292.5t-265.5 116.5q-162 0 -268.5 -116.5 t-106.5 -292.5zM234 1075q71 74 155 74q29 0 74 -10l31 -11l39 -8l36 -8q12 -4 45 -8t46 -4q72 0 143 53l31 -33q-76 -90 -170 -90h-21l-35 2l-39 8l-36 7l-35 12l-10 2l-21 6l-49 10l-47 4q-25 0 -53.5 -10t-55.5 -29z" />
<glyph unicode="&#xf6;" horiz-adv-x="1071" d="M78 449q0 209 131 348t328 139q195 0 325.5 -139.5t130.5 -347.5q0 -205 -131 -344.5t-325 -139.5q-197 0 -328 137.5t-131 346.5zM162 449q0 -172 106.5 -289t268.5 -117q160 0 266 114.5t106 291.5q0 176 -106.5 292.5t-265.5 116.5q-162 0 -268.5 -116.5 t-106.5 -292.5zM297 1151q0 68 68 68q29 0 49 -18.5t20 -49.5q0 -27 -20.5 -47.5t-48.5 -20.5q-29 0 -48.5 19.5t-19.5 48.5zM639 1151q0 68 68 68q29 0 47 -18.5t18 -49.5q0 -27 -18.5 -47.5t-46.5 -20.5q-68 0 -68 68z" />
<glyph unicode="&#xf7;" horiz-adv-x="1216" d="M88 414v139h948v-139h-948zM446 207q0 49 36 83t81 34q49 0 82 -33t33 -84q0 -49 -35 -82q-31 -35 -80 -35t-83 36t-34 81zM446 758q0 49 36 82.5t81 33.5q49 0 82 -34.5t33 -81.5q0 -49 -35 -82q-31 -35 -80 -35t-83 34t-34 83z" />
<glyph unicode="&#xf8;" horiz-adv-x="1071" d="M78 -4l117 123l-52 74q-66 111 -65 256q0 209 131 348t328 139q98 0 192 -41q33 -18 56.5 -34.5t64.5 -51.5l111 121l32 -29l-114 -125q10 -14 26.5 -34.5t53 -81t36.5 -207.5q0 -209 -131 -348.5t-327 -139.5q-104 0 -166 29t-89.5 50.5t-56.5 43.5l-121 -121zM160 455 q0 -131 51 -213l43 -62l539 574q-121 109 -258 108q-158 0 -266.5 -118.5t-108.5 -288.5zM283 147q61 -59 117.5 -81.5t136.5 -22.5q160 0 266 114.5t106 291.5q0 125 -45 210l-43 62z" />
<glyph unicode="&#xf9;" horiz-adv-x="1009" d="M152 360v541h86v-530q0 -311 266 -312q129 0 184 62.5t69.5 114t14.5 135.5v530h84v-541q0 -104 -26.5 -183t-116.5 -136t-209 -57q-172 0 -262 96t-90 280zM314 1264l71 53l238 -305l-61 -19z" />
<glyph unicode="&#xfa;" horiz-adv-x="1009" d="M152 360v541h86v-530q0 -311 266 -312q129 0 184 62.5t69.5 114t14.5 135.5v530h84v-541q0 -104 -26.5 -183t-116.5 -136t-209 -57q-172 0 -262 96t-90 280zM401 1012l240 303l74 -51l-254 -273z" />
<glyph unicode="&#xfb;" horiz-adv-x="1009" d="M152 360v541h86v-530q0 -311 266 -312q129 0 184 62.5t69.5 114t14.5 135.5v530h84v-541q0 -104 -26.5 -183t-116.5 -136t-209 -57q-172 0 -262 96t-90 280zM240 1026l229 289h70l229 -287l-55 -35l-207 252l-213 -254z" />
<glyph unicode="&#xfc;" horiz-adv-x="1009" d="M152 360v541h86v-530q0 -311 266 -312q129 0 184 62.5t69.5 114t14.5 135.5v530h84v-541q0 -104 -26.5 -183t-116.5 -136t-209 -57q-172 0 -262 96t-90 280zM264 1151q0 68 68 68q29 0 49 -18.5t20 -49.5q0 -27 -20.5 -47.5t-48.5 -20.5q-29 0 -48.5 19.5t-19.5 48.5z M606 1151q0 68 68 68q29 0 47 -18.5t18 -49.5q0 -27 -18.5 -47.5t-46.5 -20.5q-68 0 -68 68z" />
<glyph unicode="&#xff;" horiz-adv-x="806" d="M-49 901h92l336 -739q16 -37 22.5 -55.5t10.5 -45.5q4 25 9 42.5t21 56.5l324 741h88l-614 -1417l-93 -2l220 502zM164 1126q0 29 19.5 48.5t50.5 19.5q29 0 48 -19.5t19 -48.5t-19 -48t-48 -19q-31 0 -50.5 19.5t-19.5 47.5zM508 1126q0 68 66 68q68 0 67 -68 q0 -29 -19.5 -48t-47.5 -19q-29 0 -47.5 18.5t-18.5 48.5z" />
<glyph unicode="&#x152;" horiz-adv-x="2347" d="M78 735q0 319 225 546.5t549 227.5q150 0 290 -54t242.5 -157.5t155.5 -269.5v449h707l2 -76h-629v-563h627v-78h-627v-682h625l-2 -78h-707v440q-76 -225 -257 -351t-427 -126q-326 0 -550 224.5t-224 547.5zM168 739q0 -293 196.5 -491.5t487.5 -198.5q281 0 483.5 201 t202.5 483q0 287 -199.5 488.5t-488.5 201.5q-283 0 -482.5 -199.5t-199.5 -484.5z" />
<glyph unicode="&#x153;" horiz-adv-x="1855" d="M78 457q0 205 125 340t317 135q168 0 281.5 -92t142.5 -250q27 158 139.5 250t280.5 92q195 0 312.5 -134t117.5 -356v-10h-809q0 -174 105.5 -277.5t273.5 -103.5q117 0 207 63.5t123 168.5l69 -33q-133 -270 -401 -270q-172 0 -283.5 90t-134.5 249 q-35 -160 -146.5 -248.5t-275.5 -88.5q-195 0 -319.5 133t-124.5 342zM162 449q0 -172 101.5 -284t262.5 -112q168 0 273.5 114t105.5 294q0 172 -106.5 284.5t-274.5 112.5q-162 0 -262 -112.5t-100 -296.5zM993 492h719q0 174 -96 274t-252 100q-168 0 -269.5 -99 t-101.5 -275z" />
<glyph unicode="&#x178;" horiz-adv-x="907" d="M-66 1475h103l371 -619q18 -29 27 -51.5t20 -54.5q12 53 43 106l372 619h105l-477 -785v-690h-90v690zM213 1771q0 29 19.5 48.5t50.5 19.5q29 0 48 -19.5t19 -48.5t-19 -48t-48 -19q-31 0 -50.5 19.5t-19.5 47.5zM557 1771q0 68 66 68q68 0 67 -68q0 -29 -19.5 -48 t-47.5 -19q-29 0 -47.5 18.5t-18.5 48.5z" />
<glyph unicode="&#x2000;" horiz-adv-x="981" />
<glyph unicode="&#x2001;" horiz-adv-x="1962" />
<glyph unicode="&#x2002;" horiz-adv-x="981" />
<glyph unicode="&#x2003;" horiz-adv-x="1962" />
<glyph unicode="&#x2004;" horiz-adv-x="654" />
<glyph unicode="&#x2005;" horiz-adv-x="490" />
<glyph unicode="&#x2006;" horiz-adv-x="327" />
<glyph unicode="&#x2007;" horiz-adv-x="327" />
<glyph unicode="&#x2008;" horiz-adv-x="245" />
<glyph unicode="&#x2009;" horiz-adv-x="392" />
<glyph unicode="&#x200a;" horiz-adv-x="109" />
<glyph unicode="&#x2010;" horiz-adv-x="514" d="M55 426v72h406v-72h-406z" />
<glyph unicode="&#x2011;" horiz-adv-x="514" d="M55 426v72h406v-72h-406z" />
<glyph unicode="&#x2012;" horiz-adv-x="514" d="M55 426v72h406v-72h-406z" />
<glyph unicode="&#x2013;" d="M137 702v70h907v-70h-907z" />
<glyph unicode="&#x2014;" horiz-adv-x="2039" d="M61 705v65h1917v-65h-1917z" />
<glyph unicode="&#x2018;" horiz-adv-x="305" d="M43 1006l209 469h55l-141 -469h-123z" />
<glyph unicode="&#x2019;" horiz-adv-x="307" d="M-16 1006l147 471h121l-209 -471h-59z" />
<glyph unicode="&#x201a;" horiz-adv-x="307" d="M-16 -256l147 469h121l-209 -469h-59z" />
<glyph unicode="&#x201c;" horiz-adv-x="528" d="M43 1006l209 469h55l-141 -469h-123zM266 1006l209 469h55l-141 -469h-123z" />
<glyph unicode="&#x201d;" horiz-adv-x="530" d="M-16 1006l147 471h121l-209 -471h-59zM209 1006l145 471h121l-209 -471h-57z" />
<glyph unicode="&#x201e;" horiz-adv-x="530" d="M-16 -256l147 469h121l-209 -469h-59zM209 -256l145 469h121l-209 -469h-57z" />
<glyph unicode="&#x2022;" horiz-adv-x="258" d="M55 449q0 33 21.5 54t52.5 21t52.5 -21.5t21.5 -53.5q0 -31 -21.5 -52.5t-52.5 -21.5t-52.5 21.5t-21.5 52.5z" />
<glyph unicode="&#x2026;" horiz-adv-x="2039" d="M268 70q0 37 24.5 61.5t61.5 24.5t61.5 -27t24.5 -61q0 -33 -25.5 -58.5t-60.5 -25.5q-37 0 -61.5 24.5t-24.5 61.5zM950 70q0 37 24.5 61.5t61.5 24.5t61.5 -27t24.5 -61q0 -33 -25.5 -58.5t-60.5 -25.5q-37 0 -61.5 24.5t-24.5 61.5zM1620 70q0 37 24.5 61.5t61.5 24.5 t61.5 -25t24.5 -61q0 -37 -24.5 -61.5t-61.5 -24.5t-61.5 24.5t-24.5 61.5z" />
<glyph unicode="&#x202f;" horiz-adv-x="392" />
<glyph unicode="&#x2039;" horiz-adv-x="493" d="M55 528l330 377l53 -47l-297 -330l295 -321l-55 -49z" />
<glyph unicode="&#x203a;" horiz-adv-x="495" d="M55 201l299 327l-297 328l56 49l327 -375l-331 -378z" />
<glyph unicode="&#x205f;" horiz-adv-x="490" />
<glyph unicode="&#x20ac;" horiz-adv-x="1421" d="M-18 633l55 69h856l-55 -69h-856zM-18 772l55 70h967l-55 -70h-967zM78 733q0 326 225 551t551 225q145 0 252.5 -42t241.5 -152l20 -15v-118q-121 127 -247 186t-275 59q-283 0 -481.5 -202.5t-198.5 -489.5t198.5 -487.5t485.5 -200.5q301 0 518 242v-113 q-143 -119 -256 -164t-262 -45q-326 0 -549 221.5t-223 544.5z" />
<glyph unicode="&#x2122;" horiz-adv-x="1640" d="M113 1389v86h438v-86h-172v-652h-96v652h-170zM526 737l152 764h20l238 -518l14 -29l2 -8q12 -37 13 -67q0 16 3 33.5t11 35.5l4 10l10 25l240 518h20l152 -764h-100l-80 449l-4 31q-2 12 -2 34q0 20 2 31l-19 -61l-6 -21l-4 -8l-219 -477h-15l-219 477l-4 12l-8 19 l-16 59q0 -16 2 -32.5t0 -28.5l-6 -35l-80 -449h-101z" />
<glyph unicode="&#x25fc;" horiz-adv-x="901" d="M0 0v901h901v-901h-901z" />
</font>
</defs>
</svg>
